<?xml version="1.0" encoding="utf-8"?>
<!-- Generator: Adobe Illustrator 24.1.2, SVG Export Plug-In . SVG Version: 6.00 Build 0)  -->
<svg version="1.1" id="Layer_1" xmlns="http://www.w3.org/2000/svg" xmlns:xlink="http://www.w3.org/1999/xlink" x="0px" y="0px"
	 viewBox="0 0 216 216" style="enable-background:new 0 0 216 216;" xml:space="preserve">
<style type="text/css">
	.st0{fill:#FFFFFF;}
	.st1{fill:#231F20;}
	.st2{fill:url(#SVGID_1_);}
	.st3{fill:url(#SVGID_2_);}
	.st4{fill:url(#SVGID_3_);}
	.st5{fill:url(#SVGID_4_);}
	.st6{fill:url(#SVGID_5_);}
	.st7{fill:url(#SVGID_6_);}
	.st8{fill:url(#SVGID_7_);}
	.st9{fill:url(#SVGID_8_);}
	.st10{fill:url(#SVGID_9_);}
	.st11{fill:url(#SVGID_10_);}
	.st12{fill:url(#SVGID_11_);}
	.st13{fill:url(#SVGID_12_);}
	.st14{fill:url(#SVGID_13_);}
	.st15{fill:url(#SVGID_14_);}
	.st16{fill:url(#SVGID_15_);}
	.st17{fill:url(#SVGID_16_);}
	.st18{fill:url(#SVGID_17_);}
	.st19{fill:url(#SVGID_18_);}
	.st20{fill:url(#SVGID_19_);}
	.st21{fill:url(#SVGID_20_);}
	.st22{fill:url(#SVGID_21_);}
	.st23{fill:url(#SVGID_22_);}
	.st24{fill:url(#SVGID_23_);}
	.st25{fill:url(#SVGID_24_);}
	.st26{fill:url(#SVGID_25_);}
	.st27{fill:url(#SVGID_26_);}
	.st28{fill:url(#SVGID_27_);}
	.st29{fill:url(#SVGID_28_);}
	.st30{fill:url(#SVGID_29_);}
	.st31{fill:url(#SVGID_30_);}
	.st32{fill:url(#SVGID_31_);}
	.st33{fill:url(#SVGID_32_);}
	.st34{fill:url(#SVGID_33_);}
	.st35{fill:url(#SVGID_34_);}
	.st36{fill:url(#SVGID_35_);}
	.st37{fill:url(#SVGID_36_);}
</style>
<g>
	<circle class="st0" cx="111.2" cy="105.6" r="99.4"/>
	<g>
		<path class="st1" d="M80.6,176l4.5,1.5l1.7,6.5l1.7-5.4l3.6,1.2l-4.5,14l-5.6-1.8c-1.6-0.5-2.5-1.2-3-2.3c-0.5-1-0.6-2.3-0.2-3.5
			c0.7-2.1,2.2-3.1,4.3-3L80.6,176z M85.4,186c-1.4-0.5-2.4-0.1-2.8,1c-0.4,1.1,0.3,2,1.7,2.5l0.7,0.2l1.1-3.5L85.4,186z"/>
		<path class="st1" d="M67.8,184.1l2.2-3.8l-5-2.9l0.8-1.3l5,2.9l2.8-5l-5.2-2.9l0.8-1.3l6.6,3.8l-7.3,12.7l-6.6-3.8l0.8-1.3
			L67.8,184.1z"/>
		<path class="st1" d="M48.8,162.3l0.3-0.3c1.4-1.5,2.6-2.2,4.1-2.5c2.1-0.3,4.3,0.4,5.9,1.8c3,2.8,3.2,7.6,0.4,10.7
			c-2.9,3.1-7.7,3.3-10.9,0.4c-1.8-1.6-2.5-3.6-2.3-6.5l1.6,0c-0.2,2.4,0.3,4,1.7,5.3c2.5,2.3,6.3,2.2,8.6-0.4
			c2.2-2.4,2.1-6.3-0.3-8.5c-1.3-1.2-3.4-1.7-5-1.2c-0.7,0.2-1.2,0.5-1.8,1.1l3.2,2.9l-1,1.1L48.8,162.3z"/>
		<path class="st1" d="M48.9,150.3l1,1.3l-11.8,8.7l-1-1.3L48.9,150.3z"/>
		<path class="st1" d="M31.9,134.3c3.8-1.8,8.3-0.1,10.1,3.7c1.8,3.8,0.2,8.4-3.6,10.1c-3.8,1.8-8.4,0.1-10.1-3.7
			C26.5,140.6,28.1,136.1,31.9,134.3z M37.7,146.6c3-1.4,4.3-5,2.9-8c-1.4-3-5-4.3-8-2.9c-3,1.4-4.4,5-3,8
			C31.1,146.8,34.6,148.1,37.7,146.6z"/>
		<path class="st1" d="M21.7,127.7l9.9-13.3l-11.2,1.9l-0.3-1.6l15.1-2.6l-9.9,13.3l11.2-1.9l0.3,1.6L21.7,127.7z"/>
		<path class="st1" d="M30.5,103l4,2.1l-0.1,1.8l-14.8-7.9l15.8-5.4l-0.1,1.8L31,96.7L30.5,103z M23.4,99.2l5.7,3l0.4-4.9L23.4,99.2
			z"/>
		<path class="st1" d="M35.8,86.1l1.1-3.9l1.5,0.4l-1.5,5.5l-14.2-3.9l0.4-1.6L35.8,86.1z"/>
		<path class="st1" d="M33.1,58.9l3.3-4.6c2.2-3.2,6.9-3.9,10.1-1.6c3.2,2.3,4.1,7,1.8,10.1L45,67.4L33.1,58.9z M45.1,61.7
			c1.5-2.1,1.1-4.4-0.9-5.8c-2-1.4-4.3-1-5.8,1l-0.5,0.7l6.7,4.7L45.1,61.7z"/>
		<path class="st1" d="M58.2,51.3L57,52.4L46.8,41.9l1.2-1.1L58.2,51.3z"/>
		<path class="st1" d="M65.2,41.1l-3-11.5l1.5-1l4,16.2l-13.8-9.3l1.5-1L65.2,41.1z"/>
		<path class="st1" d="M73.3,25.4l1.7,4l5.3-2.3l0.6,1.4l-5.3,2.3l2.3,5.3l5.4-2.4l0.6,1.4l-7,3l-5.9-13.5l7-3l0.6,1.4L73.3,25.4z"
			/>
		<path class="st1" d="M98.5,31.2l-2,0.4l-5.7-5.3l-0.4,0.1l1.4,6.3l-1.6,0.4L87,18.8l2.3-0.5c1.6-0.4,2.7-0.4,3.6,0
			c1.1,0.4,2,1.5,2.3,2.8c0.5,2.2-0.6,4.1-2.7,4.8L98.5,31.2z M91.1,24.8c2.1-0.5,2.9-1.6,2.6-3.4c-0.4-1.6-1.7-2.2-3.8-1.7
			l-0.9,0.2l1.2,5.2L91.1,24.8z"/>
		<path class="st1" d="M110.7,18.6c-0.8-1.2-1.4-1.5-2.6-1.5c-1.4,0-2.4,1-2.4,2.3c0,0.6,0.3,1.2,1,1.6c0.4,0.2,0.7,0.4,1.2,0.6
			l0.5,0.2l0.5,0.2l0.5,0.2c2.4,1,3.4,2.1,3.4,3.9c0.1,2.5-1.9,4.6-4.5,4.7c-2.4,0.1-4-1.3-4.7-3.7l1.6-0.5c0.4,1.7,1.5,2.6,3,2.6
			c1.7,0,3-1.3,2.9-3c0-0.9-0.4-1.6-1.3-2.1c-0.4-0.2-0.8-0.4-1.3-0.6l-0.4-0.2l-0.4-0.2l-0.4-0.2c-2.1-0.9-3-1.9-3.1-3.5
			c-0.1-2.1,1.7-3.8,4-3.9c1.6,0,2.9,0.7,3.8,2.2L110.7,18.6z"/>
		<path class="st1" d="M121.1,31.2l-1.6-0.2l1.9-14.5l1.6,0.2L121.1,31.2z"/>
		<path class="st1" d="M131.8,33.6l-1.6-0.5l3.6-12.6l-3.4-1l0.4-1.5l8.4,2.4l-0.4,1.5l-3.4-1L131.8,33.6z"/>
		<path class="st1" d="M146.5,23.2l1.7,0.9l0.3,7.5l6.4-4.1l1.7,0.9l-8.2,5.2l-2.9,5.6l-1.5-0.8l2.9-5.6L146.5,23.2z"/>
		<path class="st1" d="M171,60.6l-3.2-3.5l1.8-6.5l-4.2,3.8l-2.5-2.8l10.9-9.8l4,4.4c1.1,1.2,1.5,2.3,1.5,3.5
			c-0.1,1.1-0.7,2.3-1.6,3.1c-1.6,1.5-3.5,1.6-5.2,0.4L171,60.6z M171.9,49.4c1,1.1,2.1,1.3,2.9,0.5c0.8-0.8,0.8-1.9-0.2-3l-0.5-0.5
			l-2.7,2.4L171.9,49.4z"/>
		<path class="st1" d="M187.3,74.3c-3.7,1.9-8.3,0.5-10.3-3.2c-2-3.7-0.6-8.4,3.1-10.3c3.7-1.9,8.3-0.5,10.3,3.2
			C192.4,67.7,191,72.4,187.3,74.3z M180.9,62.3c-2.9,1.5-4.1,5.2-2.6,8.1c1.5,2.9,5.2,4,8.1,2.5c3-1.6,4.1-5.2,2.6-8.1
			C187.6,61.8,183.9,60.7,180.9,62.3z"/>
		<path class="st1" d="M188.6,84.1c-1.5,0.3-2.1,0.6-2.6,1.1c-0.8,0.8-1.1,2.1-0.8,3.4c0.3,1.2,1.2,2.3,2.2,2.6
			c0.7,0.2,1.4,0.2,2.9-0.2l8.8-2l0.4,1.6l-9.2,2.1c-1.5,0.4-2.6,0.3-3.6-0.2c-1.4-0.7-2.6-2-2.9-3.7c-0.4-1.6,0-3.4,1-4.6
			c0.7-0.9,1.6-1.4,3.2-1.7l9.2-2.1l0.4,1.6L188.6,84.1z"/>
		<path class="st1" d="M201.3,101.3l-12.2,11.2l11.4,0.2l0,1.7l-15.3-0.3l12.2-11.2l-11.3-0.2l0-1.7L201.3,101.3z"/>
		<path class="st1" d="M198.7,125l-0.8,2.9c-0.6,2.3-1.5,3.7-3.1,4.8c-1.8,1.2-3.9,1.6-6.1,0.9c-2.2-0.6-3.8-2-4.7-4
			c-0.8-1.7-0.8-3.3-0.2-5.6l0.8-2.9L198.7,125z M185.2,124.5c-1,3.6,0.6,6.6,4,7.5c3.4,0.9,6.3-0.8,7.3-4.5l0.4-1.4l-11.2-3.1
			L185.2,124.5z"/>
		<path class="st1" d="M177.8,140.2l0.7-1.5l11.8,5.8l1.6-3.2l1.4,0.7l-3.9,7.9l-1.4-0.7l1.6-3.2L177.8,140.2z"/>
		<path class="st1" d="M176,151.4l-2.3-3.9l1.1-1.4l8.2,14.6l-16.3-4l1.1-1.4l4.4,1.1L176,151.4z M180,158.4l-3.2-5.5l-3,4
			L180,158.4z"/>
		<path class="st1" d="M172.4,171.7l-2,1.7c-1.2,1-2.1,1.5-3.1,1.5c-1.1,0-2.2-0.5-3-1.4c-0.8-1-1.1-1.9-0.8-3.1
			c-1.6,0.8-3.3,0.4-4.5-1c-0.8-0.9-1.2-2.1-0.9-3.3c0.2-1.1,0.8-2,2-3.1l2.8-2.4L172.4,171.7z M161.1,164.1c-1,0.9-1.4,1.4-1.5,2.2
			c-0.1,0.8,0.1,1.6,0.6,2.2c0.6,0.7,1.5,1,2.3,0.8c0.6-0.1,1.3-0.5,2.2-1.3l1.2-1.1l-3.5-4L161.1,164.1z M166,168.7
			c-1.5,1.3-1.6,2.5-0.5,3.8c1.1,1.2,2.3,1.2,3.7,0l1-0.8l-3.2-3.7L166,168.7z"/>
		<path class="st1" d="M150.2,172.1l-3.5,2.1l-0.8-1.3l4.9-2.9l7.5,12.6l-1.4,0.8L150.2,172.1z"/>
		<path class="st1" d="M144,188.3l-1.6-4.1l-5.4,2.1l-0.5-1.4l5.4-2.1l-2.1-5.4l-5.5,2.1l-0.5-1.4l7.1-2.7l5.3,13.7l-7.1,2.7
			l-0.5-1.4L144,188.3z"/>
		<path class="st1" d="M112.9,190.6c-0.1-2,1.3-3.7,3.3-3.9c2-0.1,3.7,1.3,3.9,3.3c0.1,2-1.3,3.7-3.4,3.8
			C114.7,194,113,192.5,112.9,190.6z"/>
	</g>
	<g>
		<g>
			<radialGradient id="SVGID_1_" cx="115.6093" cy="105.1575" r="57.1638" gradientUnits="userSpaceOnUse">
				<stop  offset="0" style="stop-color:#FFFFFF"/>
				<stop  offset="1" style="stop-color:#009AA7"/>
			</radialGradient>
			<rect x="101.6" y="41.6" class="st2" width="17.8" height="17.8"/>
			<radialGradient id="SVGID_2_" cx="115.6093" cy="105.1518" r="57.1627" gradientUnits="userSpaceOnUse">
				<stop  offset="0" style="stop-color:#FFFFFF"/>
				<stop  offset="1" style="stop-color:#009AA7"/>
			</radialGradient>
			<rect x="101.6" y="151.9" class="st3" width="17.8" height="17.8"/>
			<radialGradient id="SVGID_3_" cx="115.6085" cy="105.1576" r="57.1628" gradientUnits="userSpaceOnUse">
				<stop  offset="0" style="stop-color:#FFFFFF"/>
				<stop  offset="1" style="stop-color:#009AA7"/>
			</radialGradient>
			<path class="st4" d="M147.6,57.9c0,5.1-4.2,9.3-9.3,9.3c-5.1,0-9.3-4.2-9.3-9.3c0-5.1,4.2-9.3,9.3-9.3
				C143.4,48.6,147.6,52.7,147.6,57.9z"/>
			<radialGradient id="SVGID_4_" cx="115.6095" cy="105.1572" r="57.1612" gradientUnits="userSpaceOnUse">
				<stop  offset="0" style="stop-color:#FFFFFF"/>
				<stop  offset="1" style="stop-color:#009AA7"/>
			</radialGradient>
			<polygon class="st5" points="146.1,74.8 165.9,73.7 154.9,90.2 			"/>
			<radialGradient id="SVGID_5_" cx="115.6126" cy="105.1518" r="57.1632" gradientUnits="userSpaceOnUse">
				<stop  offset="0" style="stop-color:#FFFFFF"/>
				<stop  offset="1" style="stop-color:#009AA7"/>
			</radialGradient>
			<polygon class="st6" points="74.7,136.1 54.9,137.4 65.8,120.8 			"/>
			<radialGradient id="SVGID_6_" cx="115.6059" cy="105.1548" r="57.1636" gradientUnits="userSpaceOnUse">
				<stop  offset="0" style="stop-color:#FFFFFF"/>
				<stop  offset="1" style="stop-color:#009AA7"/>
			</radialGradient>
			<polygon class="st7" points="167.8,96.5 168.1,103.7 175,105.8 168.2,108.4 168.3,115.6 163.8,110 156.9,112.3 160.9,106.2 
				156.6,100.4 163.6,102.3 			"/>
			<radialGradient id="SVGID_7_" cx="115.611" cy="105.1501" r="57.1589" gradientUnits="userSpaceOnUse">
				<stop  offset="0" style="stop-color:#FFFFFF"/>
				<stop  offset="1" style="stop-color:#009AA7"/>
			</radialGradient>
			<polygon class="st8" points="153,142.1 148,133.4 153,124.7 163.1,124.7 168.1,133.4 163.1,142.1 			"/>
			<radialGradient id="SVGID_8_" cx="115.6113" cy="105.1576" r="57.1619" gradientUnits="userSpaceOnUse">
				<stop  offset="0" style="stop-color:#FFFFFF"/>
				<stop  offset="1" style="stop-color:#009AA7"/>
			</radialGradient>
			<polygon class="st9" points="57.9,86.8 52.8,78.1 57.9,69.3 67.9,69.3 73,78.1 67.9,86.8 			"/>
			<radialGradient id="SVGID_9_" cx="115.6088" cy="105.1484" r="57.165" gradientUnits="userSpaceOnUse">
				<stop  offset="0" style="stop-color:#FFFFFF"/>
				<stop  offset="1" style="stop-color:#009AA7"/>
			</radialGradient>
			<polygon class="st10" points="144.3,164.6 134.1,158.2 132.9,146 143.3,152.6 			"/>
			<radialGradient id="SVGID_10_" cx="115.6107" cy="105.1504" r="57.1611" gradientUnits="userSpaceOnUse">
				<stop  offset="0" style="stop-color:#FFFFFF"/>
				<stop  offset="1" style="stop-color:#009AA7"/>
			</radialGradient>
			<path class="st11" d="M91.7,153.7c0,5.1-4.2,9.3-9.3,9.3c-5.1,0-9.3-4.2-9.3-9.3c0-5.1,4.2-9.3,9.3-9.3
				C87.6,144.4,91.7,148.6,91.7,153.7z"/>
			<radialGradient id="SVGID_11_" cx="115.6127" cy="105.1531" r="57.1645" gradientUnits="userSpaceOnUse">
				<stop  offset="0" style="stop-color:#FFFFFF"/>
				<stop  offset="1" style="stop-color:#009AA7"/>
			</radialGradient>
			<polygon class="st12" points="53.3,96 57.6,101.9 64.5,99.9 60.3,105.7 64.3,111.7 57.5,109.5 53,115.2 53,108 46.2,105.5 
				53.1,103.2 			"/>
			<radialGradient id="SVGID_12_" cx="115.6114" cy="105.1565" r="57.1622" gradientUnits="userSpaceOnUse">
				<stop  offset="0" style="stop-color:#FFFFFF"/>
				<stop  offset="1" style="stop-color:#009AA7"/>
			</radialGradient>
			<polygon class="st13" points="88.7,67.4 78.5,61 77.3,48.8 87.6,55.4 			"/>
		</g>
		<g>
			<radialGradient id="SVGID_13_" cx="115.6089" cy="105.1574" r="57.1623" gradientUnits="userSpaceOnUse">
				<stop  offset="0" style="stop-color:#FFFFFF"/>
				<stop  offset="1" style="stop-color:#009AA7"/>
			</radialGradient>
			<polygon class="st14" points="125.5,83.6 132.7,90.7 139.8,83.6 132.7,76.4 			"/>
			<radialGradient id="SVGID_14_" cx="115.6109" cy="105.15" r="57.1623" gradientUnits="userSpaceOnUse">
				<stop  offset="0" style="stop-color:#FFFFFF"/>
				<stop  offset="1" style="stop-color:#009AA7"/>
			</radialGradient>
			<polygon class="st15" points="81.3,127.8 88.4,134.9 95.6,127.8 88.4,120.6 			"/>
			<radialGradient id="SVGID_15_" cx="115.6084" cy="105.1571" r="57.1607" gradientUnits="userSpaceOnUse">
				<stop  offset="0" style="stop-color:#FFFFFF"/>
				<stop  offset="1" style="stop-color:#009AA7"/>
			</radialGradient>
			<path class="st16" d="M144.6,101.3c-2.1,2.1-5.4,2.1-7.4,0c-2.1-2.1-2.1-5.4,0-7.4c2.1-2.1,5.4-2.1,7.4,0
				C146.6,96,146.6,99.3,144.6,101.3z"/>
			<radialGradient id="SVGID_16_" cx="115.6077" cy="105.1564" r="57.1601" gradientUnits="userSpaceOnUse">
				<stop  offset="0" style="stop-color:#FFFFFF"/>
				<stop  offset="1" style="stop-color:#009AA7"/>
			</radialGradient>
			<polygon class="st17" points="137.2,107.6 145.5,115.1 134.5,117.3 			"/>
			<radialGradient id="SVGID_17_" cx="115.612" cy="105.1567" r="57.163" gradientUnits="userSpaceOnUse">
				<stop  offset="0" style="stop-color:#FFFFFF"/>
				<stop  offset="1" style="stop-color:#009AA7"/>
			</radialGradient>
			<polygon class="st18" points="84,103.5 75.5,96.1 86.5,93.8 			"/>
			<radialGradient id="SVGID_18_" cx="115.6074" cy="105.1513" r="57.1614" gradientUnits="userSpaceOnUse">
				<stop  offset="0" style="stop-color:#FFFFFF"/>
				<stop  offset="1" style="stop-color:#009AA7"/>
			</radialGradient>
			<polygon class="st19" points="137.2,124.9 134.4,127.9 136.3,131.6 132.6,129.9 129.7,132.8 130.1,128.7 126.5,126.9 
				130.5,126.1 131.1,122 133.1,125.6 			"/>
			<radialGradient id="SVGID_19_" cx="115.6098" cy="105.1505" r="57.1614" gradientUnits="userSpaceOnUse">
				<stop  offset="0" style="stop-color:#FFFFFF"/>
				<stop  offset="1" style="stop-color:#009AA7"/>
			</radialGradient>
			<polygon class="st20" points="112.9,137.3 114.4,131.8 119.9,130.3 124,134.4 122.5,139.9 117,141.4 			"/>
			<radialGradient id="SVGID_20_" cx="115.612" cy="105.157" r="57.1629" gradientUnits="userSpaceOnUse">
				<stop  offset="0" style="stop-color:#FFFFFF"/>
				<stop  offset="1" style="stop-color:#009AA7"/>
			</radialGradient>
			<polygon class="st21" points="97,77 98.4,71.5 104,70 108,74 106.5,79.5 101,81 			"/>
			<radialGradient id="SVGID_21_" cx="115.6114" cy="105.1491" r="57.1641" gradientUnits="userSpaceOnUse">
				<stop  offset="0" style="stop-color:#FFFFFF"/>
				<stop  offset="1" style="stop-color:#009AA7"/>
			</radialGradient>
			<polygon class="st22" points="100.4,142.9 98.9,136.2 103.3,130.8 104.8,137.6 			"/>
			<radialGradient id="SVGID_22_" cx="115.6116" cy="105.1564" r="57.1557" gradientUnits="userSpaceOnUse">
				<stop  offset="0" style="stop-color:#FFFFFF"/>
				<stop  offset="1" style="stop-color:#009AA7"/>
			</radialGradient>
			<path class="st23" d="M83.7,117.4c-2.1,2.1-5.4,2.1-7.4,0c-2.1-2.1-2.1-5.4,0-7.4c2.1-2.1,5.4-2.1,7.4,0
				C85.8,112,85.8,115.3,83.7,117.4z"/>
			<radialGradient id="SVGID_23_" cx="115.6116" cy="105.157" r="57.161" gradientUnits="userSpaceOnUse">
				<stop  offset="0" style="stop-color:#FFFFFF"/>
				<stop  offset="1" style="stop-color:#009AA7"/>
			</radialGradient>
			<polygon class="st24" points="91.4,78.9 90.8,82.9 94.4,84.9 90.4,85.6 89.6,89.6 87.7,85.9 83.6,86.4 86.5,83.5 84.8,79.8 
				88.4,81.7 			"/>
			<radialGradient id="SVGID_24_" cx="115.6086" cy="105.1564" r="57.1601" gradientUnits="userSpaceOnUse">
				<stop  offset="0" style="stop-color:#FFFFFF"/>
				<stop  offset="1" style="stop-color:#009AA7"/>
			</radialGradient>
			<polygon class="st25" points="117.1,81.5 115.6,74.9 120,69.5 121.5,76.3 			"/>
		</g>
		<g>
			<radialGradient id="SVGID_25_" cx="115.6109" cy="105.1563" r="57.1457" gradientUnits="userSpaceOnUse">
				<stop  offset="0" style="stop-color:#FFFFFF"/>
				<stop  offset="1" style="stop-color:#009AA7"/>
			</radialGradient>
			<rect x="122.9" y="103.7" class="st26" width="4.5" height="4.5"/>
			<radialGradient id="SVGID_26_" cx="115.6112" cy="105.1558" r="57.1608" gradientUnits="userSpaceOnUse">
				<stop  offset="0" style="stop-color:#FFFFFF"/>
				<stop  offset="1" style="stop-color:#009AA7"/>
			</radialGradient>
			<rect x="94.9" y="103.7" class="st27" width="4.5" height="4.5"/>
			<radialGradient id="SVGID_27_" cx="115.6069" cy="105.1574" r="57.1473" gradientUnits="userSpaceOnUse">
				<stop  offset="0" style="stop-color:#FFFFFF"/>
				<stop  offset="1" style="stop-color:#009AA7"/>
			</radialGradient>
			<path class="st28" d="M123.3,115.3c-1.3,0-2.4-1.1-2.4-2.4c0-1.3,1.1-2.4,2.4-2.4c1.3,0,2.4,1.1,2.4,2.4
				C125.7,114.3,124.6,115.3,123.3,115.3z"/>
			<radialGradient id="SVGID_28_" cx="115.6074" cy="105.1518" r="57.1579" gradientUnits="userSpaceOnUse">
				<stop  offset="0" style="stop-color:#FFFFFF"/>
				<stop  offset="1" style="stop-color:#009AA7"/>
			</radialGradient>
			<polygon class="st29" points="119,115 119.3,120 115.1,117.2 			"/>
			<radialGradient id="SVGID_29_" cx="115.6128" cy="105.157" r="57.1651" gradientUnits="userSpaceOnUse">
				<stop  offset="0" style="stop-color:#FFFFFF"/>
				<stop  offset="1" style="stop-color:#009AA7"/>
			</radialGradient>
			<polygon class="st30" points="103.4,96.8 103.1,91.8 107.3,94.5 			"/>
			<radialGradient id="SVGID_30_" cx="115.6066" cy="105.1496" r="57.164" gradientUnits="userSpaceOnUse">
				<stop  offset="0" style="stop-color:#FFFFFF"/>
				<stop  offset="1" style="stop-color:#009AA7"/>
			</radialGradient>
			<polygon class="st31" points="113.5,120.5 111.7,120.5 111.1,122.3 110.5,120.6 108.6,120.6 110.1,119.4 109.5,117.7 111,118.7 
				112.5,117.6 112,119.4 			"/>
			<radialGradient id="SVGID_31_" cx="115.6111" cy="105.15" r="57.1624" gradientUnits="userSpaceOnUse">
				<stop  offset="0" style="stop-color:#FFFFFF"/>
				<stop  offset="1" style="stop-color:#009AA7"/>
			</radialGradient>
			<polygon class="st32" points="101.9,116.7 104.1,115.4 106.3,116.7 106.3,119.3 104.1,120.6 101.9,119.3 			"/>
			<radialGradient id="SVGID_32_" cx="115.6077" cy="105.1565" r="57.1602" gradientUnits="userSpaceOnUse">
				<stop  offset="0" style="stop-color:#FFFFFF"/>
				<stop  offset="1" style="stop-color:#009AA7"/>
			</radialGradient>
			<polygon class="st33" points="116,92.5 118.2,91.3 120.4,92.5 120.4,95.1 118.2,96.4 116,95.1 			"/>
			<radialGradient id="SVGID_33_" cx="115.6123" cy="105.1568" r="57.1542" gradientUnits="userSpaceOnUse">
				<stop  offset="0" style="stop-color:#FFFFFF"/>
				<stop  offset="1" style="stop-color:#009AA7"/>
			</radialGradient>
			<polygon class="st34" points="96.2,114.5 97.8,111.9 100.9,111.6 99.2,114.2 			"/>
			<radialGradient id="SVGID_34_" cx="115.6088" cy="105.1581" r="57.1552" gradientUnits="userSpaceOnUse">
				<stop  offset="0" style="stop-color:#FFFFFF"/>
				<stop  offset="1" style="stop-color:#009AA7"/>
			</radialGradient>
			<path class="st35" d="M99,101.1c-1.3,0-2.4-1.1-2.4-2.4c0-1.3,1.1-2.4,2.4-2.4c1.3,0,2.4,1.1,2.4,2.4
				C101.3,100.1,100.3,101.1,99,101.1z"/>
			<radialGradient id="SVGID_35_" cx="115.607" cy="105.1568" r="57.1595" gradientUnits="userSpaceOnUse">
				<stop  offset="0" style="stop-color:#FFFFFF"/>
				<stop  offset="1" style="stop-color:#009AA7"/>
			</radialGradient>
			<polygon class="st36" points="113.6,91.4 112.1,92.5 112.6,94.2 111.2,93.2 109.6,94.2 110.2,92.4 108.8,91.3 110.6,91.3 
				111.2,89.6 111.8,91.3 			"/>
			<radialGradient id="SVGID_36_" cx="115.6065" cy="105.155" r="57.1671" gradientUnits="userSpaceOnUse">
				<stop  offset="0" style="stop-color:#FFFFFF"/>
				<stop  offset="1" style="stop-color:#009AA7"/>
			</radialGradient>
			<polygon class="st37" points="120.9,100.4 122.5,97.8 125.6,97.5 123.9,100.1 			"/>
		</g>
	</g>
</g>
</svg>
